<?xml version="1.0" encoding="UTF-8"?>
<svg id="Layer_1" data-name="Layer 1" xmlns="http://www.w3.org/2000/svg" viewBox="0 0 1000 1000">
  <defs>
    <style>
      .cls-1 {
        fill: #2d2d92;
      }
    </style>
  </defs>
  <path class="cls-1" d="m254.8,520.05v-231.06c0-18.88,15.31-34.19,34.19-34.19h89.35c14.3,0,27.27,5.98,36.05,15.54,7.77,8.24,12.59,19.04,12.66,30.92.16,12.74-4.74,24.63-13.75,33.64-8.78,8.86-20.59,13.67-33.1,13.67h-44.83c-16.78,0-32.63,6.53-44.83,18.65-11.89,11.97-18.41,27.81-18.41,44.6,0,34.88,28.36,63.24,63.24,63.24h172.24v-48.02h-172.24c-8.39,0-15.23-6.84-15.23-15.23,0-4.04,1.63-7.92,4.35-10.64,2.95-2.95,6.84-4.58,10.88-4.58h44.83c25.33,0,49.18-9.87,67.05-27.74,18.18-18.18,28.05-42.34,27.81-67.98-.08-10.72-2.02-20.98-5.52-30.53-1.86-5.44-4.27-10.64-7.15-15.54-16.7-28.67-48.17-48.02-84.07-48.02h-89.35c-45.3,0-82.2,36.9-82.2,82.2v275.43c11.27-19.19,28.05-34.73,48.02-44.36Z"/>
  <path class="cls-1" d="m792.13,275.7c-6.37-39-40.25-68.91-81.11-68.91h-275.43c19.27,11.27,34.81,28.05,44.36,48.02h231.06c14.3,0,26.49,8.78,31.62,21.13,1.63,4.04,2.56,8.39,2.56,13.05v89.35c0,14.3-5.98,27.27-15.54,36.05-8.24,7.77-19.04,12.59-30.92,12.66-12.66.16-24.63-4.74-33.56-13.75-8.86-8.86-13.75-20.59-13.75-33.1v-44.83c0-16.78-6.53-32.63-18.57-44.83-12.04-11.89-27.89-18.41-44.67-18.41-34.88,0-63.24,28.36-63.24,63.24v172.25h48.02v-172.25c0-8.39,6.84-15.23,15.23-15.23,4.04,0,7.92,1.63,10.72,4.35,2.95,2.95,4.51,6.84,4.51,10.88v44.83c0,25.33,9.87,49.18,27.81,67.05,18.1,18.18,42.27,28.05,67.98,27.81,10.64-.08,20.9-2.02,30.46-5.44,5.44-1.94,10.64-4.35,15.54-7.23,28.67-16.7,48.02-48.17,48.02-84.06v-89.35c0-4.51-.39-8.94-1.09-13.29Z"/>
  <path class="cls-1" d="m745.2,479.95v231.06c0,18.88-15.31,34.19-34.11,34.19h-89.43c-14.3,0-27.27-5.98-36.05-15.54-7.77-8.24-12.59-19.04-12.66-30.92-.08-12.66,4.82-24.63,13.75-33.56,8.86-8.86,20.59-13.75,33.18-13.75h44.83c16.78,0,32.63-6.53,44.83-18.57,11.81-12.04,18.41-27.89,18.41-44.67,0-34.88-28.44-63.24-63.24-63.24h-172.33v48.02h172.33c8.39,0,15.23,6.84,15.23,15.23,0,4.04-1.63,7.92-4.35,10.72-2.95,2.95-6.84,4.51-10.88,4.51h-44.83c-25.41,0-49.18,9.87-67.13,27.81-18.1,18.1-28.05,42.27-27.81,67.9.08,10.72,2.02,20.98,5.52,30.53,1.86,5.44,4.35,10.64,7.23,15.54,16.7,28.67,48.17,48.02,83.99,48.02h89.43c45.3,0,82.12-36.83,82.12-82.2v-275.43c-11.27,19.19-28.05,34.73-48.02,44.36Z"/>
  <path class="cls-1" d="m520.05,745.2h-231.06c-18.88,0-34.19-15.31-34.19-34.19v-89.35c0-14.3,5.98-27.19,15.54-36.05,8.24-7.77,19.11-12.59,30.92-12.66,12.74-.08,24.63,4.82,33.64,13.75,8.86,8.86,13.67,20.59,13.67,33.18v44.75c0,16.78,6.53,32.71,18.65,44.91,11.96,11.81,27.81,18.41,44.6,18.41,34.88,0,63.24-28.44,63.24-63.32v-172.24h-48.02v172.24c0,8.47-6.84,15.31-15.23,15.31-4.04,0-7.92-1.63-10.64-4.35-2.95-2.95-4.58-6.84-4.58-10.95v-44.75c0-25.41-9.87-49.18-27.74-67.13-18.18-18.1-42.34-28.05-67.98-27.81-10.72.08-20.98,2.02-30.53,5.52-5.44,1.86-10.64,4.35-15.54,7.23-28.67,16.7-48.02,48.17-48.02,83.99v89.35c0,45.37,36.9,82.2,82.2,82.2h275.43c-19.19-11.27-34.73-28.05-44.36-48.02Z"/>
</svg>